Coordinates
version=1
nRows=7
nColumns=38
inDegrees=yes

Units are S.I. units (second, meters, Newtons, ...)
Angles are in degrees.

endheader
time	pelvis_tilt	pelvis_list	pelvis_rotation	pelvis_tx	pelvis_ty	pelvis_tz	hip_flexion_r	hip_adduction_r	hip_rotation_r	knee_angle_r	ankle_angle_r	subtalar_angle_r	mtp_angle_r	hip_flexion_l	hip_adduction_l	hip_rotation_l	knee_angle_l	ankle_angle_l	subtalar_angle_l	mtp_angle_l	lumbar_extension	lumbar_bending	lumbar_rotation	arm_flex_r	arm_add_r	arm_rot_r	elbow_flex_r	pro_sup_r	wrist_flex_r	wrist_dev_r	arm_flex_l	arm_add_l	arm_rot_l	elbow_flex_l	pro_sup_l	wrist_flex_l	wrist_dev_l
      1.50000000	      6.33176190	     -1.55514870	      3.25519333	      0.05531689	      0.98446626	     -0.24311775	     16.59792958	      5.50203696	     -1.62956043	    -24.91851958	     -1.33118449	    -10.49145447	      0.00000000	     -9.25008328	     -1.09607957	     -2.06953630	    -48.22442288	    -18.08381570	      2.31469667	      0.00000000	    -20.27029467	      5.45742046	     -5.22366561	    -11.45536416	     -4.44006386	     15.21848169	     40.47200917	     41.33759796	      0.00000000	      0.00000000	      5.34788285	    -11.00996029	     31.55242658	     67.04580041	     41.33759796	      0.00000000	      0.00000000
      1.51000000	      6.34186529	     -1.83801912	      3.36065319	      0.06900327	      0.98470386	     -0.24320823	     16.17677520	      5.81290840	     -1.82055993	    -25.82335761	     -0.02483086	    -10.26674106	      0.00000000	     -7.22168656	     -1.82879502	     -2.49173731	    -51.57112919	    -16.23984071	      2.22941945	      0.00000000	    -20.43795168	      5.83404787	     -4.90056632	    -10.67426738	     -5.22204350	     19.19451695	     39.91268507	     41.80506921	      0.00000000	      0.00000000	      5.08294397	    -10.47732352	     30.69436188	     65.91885992	     41.80506921	      0.00000000	      0.00000000
      1.52000000	      6.37160534	     -2.15582635	      3.55909363	      0.08242548	      0.98508153	     -0.24333602	     15.59192459	      6.19013373	     -1.90392179	    -26.42353978	      1.18616901	    -10.07888311	      0.00000000	     -5.26506150	     -2.70040795	     -2.95823943	    -54.58099343	    -13.69312981	      1.96275777	      0.00000000	    -20.64565105	      6.26402800	     -4.65799062	    -10.16943213	     -5.23283643	     19.29072722	     39.92718678	     41.83854436	      0.00000000	      0.00000000	      4.82412340	    -10.50118703	     30.77158266	     65.64769364	     41.83854436	      0.00000000	      0.00000000
      1.53000000	      6.45906871	     -2.35473316	      3.81441761	      0.09570693	      0.98586347	     -0.24351077	     14.82320377	      6.36478966	     -2.33467563	    -26.78273610	      2.42547815	     -9.63830484	      0.00000000	     -3.34792624	     -3.46077604	     -3.31514773	    -57.23839488	    -11.35903110	      1.35607097	      0.00000000	    -20.91579995	      6.54047052	     -4.48450686	     -9.60009398	     -5.21797001	     19.58113623	     39.97068453	     41.90079378	      0.00000000	      0.00000000	      4.67627476	    -10.35538855	     30.71619329	     64.83247629	     41.90079378	      0.00000000	      0.00000000
      1.54000000	      6.59674811	     -2.40866510	      4.09246579	      0.10889465	      0.98717054	     -0.24375794	     13.81041606	      6.45195902	     -2.54816352	    -26.78238774	      3.40128460	     -9.45949234	      0.00000000	     -1.48166876	     -3.84736465	     -3.33327068	    -59.44280292	     -9.64388171	     -0.24876083	      0.00000000	    -21.23377632	      6.67548287	     -4.38879916	     -8.97977357	     -5.22825069	     19.83015923	     40.06958917	     41.94897627	      0.00000000	      0.00000000	      4.47274630	    -10.30202432	     30.69029577	     63.97190295	     41.94897627	      0.00000000	      0.00000000
      1.55000000	      6.77277462	     -2.34765418	      4.28746294	      0.12205563	      0.98884296	     -0.24375008	     12.66958589	      6.50025520	     -2.50707868	    -26.64469231	      4.32341855	     -9.42854921	      0.00000000	      0.27174711	     -4.00999374	     -3.29560974	    -61.18986375	     -8.15646832	     -1.95375754	      0.00000000	    -21.58521342	      6.60373373	     -4.27360860	     -8.14082725	     -5.19776811	     19.92676804	     40.36828135	     41.96966146	      0.00000000	      0.00000000	      4.22688801	    -10.37283882	     30.67840544	     63.41561447	     41.96966146	      0.00000000	      0.00000000
      1.56000000	      6.87475748	     -2.19424978	      4.48337169	      0.13516348	      0.99071852	     -0.24378014	     11.55673687	      6.39962805	     -2.66588163	    -26.40537401	      5.18156533	     -9.19697086	      0.00000000	      2.01046742	     -3.88938240	     -3.11848129	    -62.44010942	     -7.22861854	     -4.28156605	      0.00000000	    -21.81373914	      6.43596078	     -4.11648373	     -7.55908062	     -5.30682086	     21.05973483	     40.51966550	     42.14710801	      0.00000000	      0.00000000	      4.42395362	     -9.88053321	     30.58064299	     60.55574128	     42.14710801	      0.00000000	      0.00000000
